<svg width="26" height="19" viewBox="0 0 26 19" fill="none" xmlns="http://www.w3.org/2000/svg">
<path d="M24.8857 2.23529H1.11429C0.501429 2.23529 0 1.73235 0 1.11765C0 0.502941 0.501429 0 1.11429 0H24.8857C25.4986 0 26 0.502941 26 1.11765C26 1.73235 25.4986 2.23529 24.8857 2.23529Z" fill="#333333"/>
<path d="M24.8857 10.6176H1.11429C0.501429 10.6176 0 10.1147 0 9.49997C0 8.88527 0.501429 8.38232 1.11429 8.38232H24.8857C25.4986 8.38232 26 8.88527 26 9.49997C26 10.1147 25.4986 10.6176 24.8857 10.6176Z" fill="#333333"/>
<path d="M24.8857 19H1.11429C0.501429 19 0 18.4971 0 17.8824C0 17.2677 0.501429 16.7647 1.11429 16.7647H24.8857C25.4986 16.7647 26 17.2677 26 17.8824C26 18.4971 25.4986 19 24.8857 19Z" fill="#333333"/>
</svg>
